<?xml version="1.0" encoding="UTF-8" standalone="no"?>
<!-- Created with Inkscape (http://www.inkscape.org/) -->

<svg
   width="210mm"
   height="297mm"
   viewBox="0 0 210 297"
   version="1.1"
   id="svg1"
   xml:space="preserve"
   xmlns="http://www.w3.org/2000/svg"
   xmlns:svg="http://www.w3.org/2000/svg"><defs
     id="defs1"><rect
       x="197.81618"
       y="51.079296"
       width="134.35402"
       height="50.150581"
       id="rect123" /><linearGradient
       id="swatch1"><stop
         style="stop-color:#00a000;stop-opacity:1;"
         offset="0"
         id="stop1" /></linearGradient></defs><g
     id="layer1"><g
       id="layer1-8"
       transform="matrix(0.38072577,0,0,0.37022754,91.382821,112.50432)"><text
         xml:space="preserve"
         transform="scale(0.26458333)"
         id="text123"
         style="font-style:normal;font-variant:normal;font-weight:normal;font-stretch:normal;font-size:45.3543px;line-height:0px;font-family:'Bookshelf Symbol 7';-inkscape-font-specification:'Bookshelf Symbol 7, Normal';font-variant-ligatures:normal;font-variant-caps:normal;font-variant-numeric:normal;font-variant-east-asian:normal;letter-spacing:0.14px;word-spacing:0.01px;white-space:pre;shape-inside:url(#rect123);display:inline;fill:none;stroke:#a60004;stroke-width:13.2283;stroke-linecap:round;stroke-linejoin:round;stroke-dasharray:none;stroke-opacity:1" /><path
         style="fill:#800000;stroke:#000000;stroke-width:0.0129888mm"
         d="m 169.96412,108.1587 c 0.0259,0.26688 0.0463,0.53461 0.0611,0.80282 h 0.0175 l 0.0636,-0.18602 c 0.0711,-0.20586 0.14333,-0.41187 0.21605,-0.6168 l 0.83012,-2.26255 h 0.70486 l -1.1577,2.78804 c -0.24265,0.59772 -0.5133,1.17665 -0.8105,1.73369 -0.15971,0.29676 -0.34992,0.56543 -0.56563,0.7989 -0.21992,0.22524 -0.47245,0.3943 -0.7435,0.49773 l -0.0685,0.0205 -0.0736,-0.71524 0.0901,-0.0435 c 0.42671,-0.21791 0.78074,-0.61474 1.00278,-1.12392 0.0312,-0.0771 0.0353,-0.16714 0.0118,-0.24839 l -0.57436,-3.70763 h 0.73376 z m -3.01925,-2.34507 c 0.14163,0.006 0.27992,0.0562 0.40312,0.14481 0.1397,0.11077 0.2447,0.27937 0.29697,0.47698 h 0.0115 l 0.10419,-0.53927 h 0.59459 l -0.0215,0.10856 c -0.0653,0.34803 -0.12178,0.69858 -0.16941,1.05115 l -0.34222,2.45178 c -0.0443,0.31575 -0.11957,0.62336 -0.22386,0.91572 -0.0723,0.19545 -0.16584,0.37728 -0.27774,0.54034 -0.25278,0.34607 -0.59381,0.56902 -0.9635,0.62993 -0.35098,0.0711 -0.71002,0.0445 -1.05204,-0.0778 -0.10758,-0.0395 -0.21005,-0.0987 -0.30417,-0.17546 l 0.24176,-0.65659 0.0712,0.0549 c 0.31616,0.21216 0.68056,0.2796 1.03161,0.19088 0.2806,-0.0846 0.5158,-0.32512 0.63959,-0.65415 0.0701,-0.18547 0.11977,-0.38217 0.14758,-0.58467 l 0.0539,-0.38625 h -0.0115 l -0.0414,0.0638 c -0.33857,0.49274 -0.88807,0.65798 -1.36617,0.41081 -0.16461,-0.0939 -0.30268,-0.24871 -0.39572,-0.44418 -0.11446,-0.24339 -0.17824,-0.51939 -0.18544,-0.80232 -0.0168,-0.62231 0.11822,-1.23594 0.38695,-1.75799 0.18561,-0.36379 0.45146,-0.65113 0.76471,-0.82656 0.19063,-0.10636 0.39889,-0.15253 0.60678,-0.13451 z m -45.13302,0 c 0.14163,0.006 0.27991,0.0562 0.40309,0.14481 0.13974,0.11077 0.24472,0.27937 0.29696,0.47698 h 0.0114 l 0.10418,-0.53927 h 0.59459 l -0.0214,0.10856 c -0.0653,0.34804 -0.12177,0.69856 -0.16941,1.05115 l -0.34223,2.45178 c -0.0443,0.31576 -0.11955,0.62338 -0.22393,0.91572 -0.0722,0.19547 -0.16578,0.3773 -0.27765,0.54034 -0.25282,0.34605 -0.59383,0.569 -0.9635,0.62993 -0.351,0.0711 -0.71005,0.0445 -1.05206,-0.0778 -0.10759,-0.0395 -0.21004,-0.0987 -0.30418,-0.17546 l 0.24177,-0.65659 0.0712,0.0549 c 0.31616,0.21217 0.68056,0.2796 1.03161,0.19088 0.28058,-0.0846 0.51578,-0.32512 0.63958,-0.65415 0.0701,-0.18547 0.11978,-0.38217 0.14757,-0.58467 l 0.0539,-0.38625 h -0.0115 l -0.0413,0.0638 c -0.33859,0.49275 -0.88809,0.65799 -1.36617,0.41081 -0.16463,-0.0939 -0.30269,-0.2487 -0.39572,-0.44418 -0.11446,-0.24339 -0.17826,-0.51939 -0.18544,-0.80232 -0.0168,-0.62231 0.11821,-1.23594 0.38692,-1.75799 0.18566,-0.36379 0.45147,-0.65113 0.76472,-0.82656 0.19063,-0.10636 0.39889,-0.15253 0.60681,-0.13451 z m 16.26805,4.3e-4 c 0.21475,0.0126 0.42387,0.0908 0.60948,0.22772 l -0.23561,0.61261 c -0.22558,-0.20381 -0.51042,-0.27246 -0.77958,-0.1879 -0.2084,0.0719 -0.34716,0.32063 -0.33075,0.59272 0.0155,0.10933 0.0663,0.20562 0.14017,0.26606 0.12396,0.10888 0.25721,0.19975 0.39729,0.27092 l 0.0822,0.054 c 0.14127,0.093 0.264,0.22513 0.35894,0.38668 0.0965,0.1827 0.13694,0.40336 0.11408,0.62102 -0.0261,0.35891 -0.16067,0.69134 -0.37578,0.9282 -0.21014,0.21658 -0.46544,0.35159 -0.73506,0.38873 -0.31375,0.0578 -0.63396,0.0104 -0.92858,-0.13777 -0.0569,-0.0302 -0.1114,-0.067 -0.16302,-0.10976 l 0.23774,-0.6273 0.0608,0.0482 c 0.21054,0.15442 0.45143,0.23023 0.69472,0.21868 0.14327,-0.003 0.28164,-0.0662 0.39187,-0.18198 0.14241,-0.15913 0.19269,-0.41195 0.12675,-0.6372 -0.0526,-0.11592 -0.13094,-0.20993 -0.22528,-0.27054 -0.0865,-0.0622 -0.1759,-0.11784 -0.26766,-0.16663 l -0.0871,-0.0574 c -0.14518,-0.094 -0.2709,-0.22953 -0.36705,-0.39594 -0.12118,-0.22683 -0.15122,-0.51239 -0.0812,-0.77132 0.0775,-0.33468 0.24976,-0.62177 0.4838,-0.80677 0.19247,-0.15308 0.41212,-0.24327 0.63907,-0.26243 0.0797,-0.0104 0.15989,-0.0108 0.23969,-0.003 z m 20.16952,-0.003 c 0.23659,0.007 0.46635,0.10175 0.66124,0.27134 0.21759,0.20995 0.36554,0.51464 0.41496,0.85479 0.0531,0.37131 0.0421,0.75271 -0.0321,1.11816 -0.0561,0.32439 -0.15708,0.63383 -0.29804,0.91416 -0.17835,0.34778 -0.42828,0.62775 -0.72296,0.80989 -0.34083,0.21445 -0.73052,0.27107 -1.10099,0.15995 -0.42974,-0.13317 -0.75171,-0.58418 -0.81226,-1.13777 -0.0454,-0.40112 -0.0215,-0.8099 0.0704,-1.19818 0.10723,-0.52281 0.34378,-0.98883 0.67517,-1.33014 0.32428,-0.32501 0.73135,-0.48937 1.14478,-0.4622 z m -33.69988,2.33174 c -0.0377,0.21954 -0.0444,0.44575 -0.02,0.66829 0.0115,0.11018 0.0451,0.21486 0.0975,0.30417 0.0717,0.10196 0.1719,0.16443 0.27953,0.1742 0.17665,0.0227 0.35374,-0.0375 0.49764,-0.16886 0.17521,-0.14566 0.30047,-0.3696 0.35062,-0.62684 l 0.0216,-0.11012 0.34753,-2.48878 h 0.66959 l -0.40063,2.86974 c -0.052,0.38208 -0.0959,0.76584 -0.13176,1.15087 h -0.58889 l 0.0469,-0.58303 h -0.0175 l -0.0348,0.0556 c -0.17593,0.25497 -0.40448,0.44292 -0.6603,0.54297 -0.1807,0.0665 -0.37089,0.0816 -0.55677,0.0442 -0.16502,-0.0325 -0.31633,-0.13503 -0.42908,-0.29066 -0.1246,-0.2024 -0.1945,-0.44994 -0.19938,-0.70625 -0.007,-0.23265 0.005,-0.4656 0.0388,-0.69465 l 0.33352,-2.38877 h 0.66966 z m -9.70326,-2.33038 c 0.15565,0.006 0.30897,0.0499 0.45159,0.12892 0.24243,0.15011 0.40425,0.45058 0.42573,0.79051 0.0223,0.23669 0.0149,0.47632 -0.0219,0.7101 l -0.21185,1.51736 c -0.046,0.28116 -0.0747,0.56637 -0.0862,0.8531 l -0.002,0.1031 h -0.60616 l 0.0188,-0.46636 h -0.0174 l -0.0896,0.11441 c -0.23942,0.27728 -0.55238,0.43147 -0.87722,0.43221 -0.13163,-6.1e-4 -0.26192,-0.0333 -0.38375,-0.0962 -0.17847,-0.10082 -0.31276,-0.29553 -0.36723,-0.53264 -0.0522,-0.2389 -0.0473,-0.49184 0.0141,-0.72721 0.0924,-0.40324 0.30943,-0.74263 0.60216,-0.94148 0.24063,-0.16412 0.50253,-0.27267 0.77337,-0.3205 0.19149,-0.0359 0.38488,-0.0533 0.57845,-0.0523 l 0.0122,-0.0821 c 0.0183,-0.12701 0.021,-0.25689 0.007,-0.3849 -0.0286,-0.21052 -0.16156,-0.37395 -0.32896,-0.40433 -0.21201,-0.0457 -0.42945,-0.0292 -0.63555,0.0484 -0.13474,0.0456 -0.26413,0.11357 -0.38491,0.20184 l -0.0601,-0.56185 c 0.28278,-0.19212 0.59532,-0.30389 0.91587,-0.32757 0.0903,-0.009 0.1812,-0.0104 0.27168,-0.003 z m 48.66192,-0.002 c 0.23658,0.007 0.46634,0.10175 0.66123,0.27132 0.2176,0.20995 0.36551,0.51467 0.41498,0.85481 0.0531,0.37132 0.0422,0.7527 -0.0321,1.11815 -0.0561,0.32442 -0.15707,0.63385 -0.29802,0.91417 -0.17837,0.34778 -0.4283,0.62777 -0.723,0.80987 -0.34082,0.21446 -0.7305,0.27107 -1.10096,0.15997 -0.42975,-0.13317 -0.75172,-0.58418 -0.81226,-1.13777 -0.0501,-0.45516 -0.013,-0.91875 0.10794,-1.35213 0.13781,-0.5494 0.42474,-1.01971 0.81023,-1.32807 0.2919,-0.22475 0.63071,-0.3329 0.97208,-0.31032 z m -27.984,3.03152 c -0.0487,0.35634 -0.091,0.71404 -0.12668,1.07288 h -0.58883 l 0.0529,-0.6268 h -0.0174 l -0.0444,0.0762 c -0.28708,0.46843 -0.75386,0.70146 -1.21696,0.60755 -0.30662,-0.0657 -0.56704,-0.32088 -0.69379,-0.6796 -0.0996,-0.2829 -0.14366,-0.59188 -0.12875,-0.90085 0.0135,-0.56931 0.1459,-1.12385 0.38377,-1.60774 0.16357,-0.33139 0.39383,-0.60212 0.66729,-0.78442 0.29196,-0.198 0.63354,-0.2445 0.95221,-0.12967 0.19228,0.0691 0.34958,0.2443 0.42799,0.47655 h 0.0115 l 0.31888,-2.2837 h 0.66956 z m -6.57747,-3.03017 c 0.15566,0.006 0.30899,0.0499 0.45159,0.12893 0.24245,0.1501 0.40428,0.45059 0.42573,0.79053 0.0223,0.23669 0.0149,0.47631 -0.0219,0.71007 l -0.21186,1.51738 c -0.046,0.28115 -0.0747,0.56636 -0.0863,0.85307 l -0.002,0.1031 h -0.60617 l 0.0188,-0.46635 h -0.0175 l -0.0896,0.1144 c -0.23943,0.27728 -0.55236,0.43149 -0.8772,0.43222 -0.13165,-6.2e-4 -0.26193,-0.0333 -0.38375,-0.0962 -0.1785,-0.10071 -0.31277,-0.29551 -0.36724,-0.53265 -0.0522,-0.23887 -0.0473,-0.49182 0.014,-0.72719 0.0924,-0.40326 0.30943,-0.74264 0.60215,-0.94147 0.24065,-0.16413 0.50252,-0.27269 0.77338,-0.32052 0.1915,-0.0359 0.38487,-0.0533 0.57846,-0.0522 l 0.0122,-0.0821 c 0.0184,-0.12701 0.021,-0.25688 0.007,-0.38488 -0.0286,-0.2105 -0.16155,-0.37394 -0.32891,-0.40434 -0.21202,-0.0457 -0.42949,-0.0292 -0.63561,0.0484 -0.13475,0.0456 -0.26415,0.11359 -0.38489,0.20186 l -0.0601,-0.56186 c 0.28278,-0.19212 0.59532,-0.30391 0.91588,-0.32757 0.0903,-0.009 0.18118,-0.0104 0.27166,-0.003 z m 19.31306,-2.8e-4 c 0.19863,0.008 0.39368,0.0686 0.57277,0.1774 l -0.22354,0.64894 -0.0425,-0.0285 c -0.36394,-0.21076 -0.78808,-0.16922 -1.12197,0.10983 -0.23764,0.2248 -0.41234,0.53942 -0.49871,0.8982 -0.0744,0.28455 -0.0972,0.58647 -0.067,0.88365 0.0237,0.23547 0.11671,0.45114 0.26033,0.60429 0.11927,0.11893 0.26382,0.19029 0.41536,0.20498 0.24825,0.0219 0.49705,-0.0308 0.72607,-0.15367 l 0.005,0.63442 c -0.39558,0.20409 -0.83019,0.25472 -1.24861,0.14545 -0.44297,-0.11924 -0.78011,-0.57535 -0.84386,-1.14167 -0.10061,-0.88167 0.14711,-1.76918 0.6632,-2.37635 0.35497,-0.40071 0.81601,-0.61904 1.29207,-0.61184 z m -6.38339,0.0827 h 0.75707 l -0.0887,0.63406 h -0.75702 l -0.28443,2.03694 c -0.0261,0.14837 -0.0292,0.3017 -0.009,0.45161 0.021,0.16156 0.13082,0.28103 0.26043,0.28302 0.11882,0.009 0.23805,-0.007 0.35249,-0.0482 l -0.0676,0.64881 c -0.23308,0.0927 -0.47957,0.11812 -0.72145,0.0745 -0.13251,-0.0232 -0.25581,-0.099 -0.3521,-0.21619 -0.0772,-0.10216 -0.12969,-0.23052 -0.15063,-0.36941 -0.0316,-0.25935 -0.0253,-0.5237 0.0184,-0.78025 l 0.29046,-2.08078 h -0.45075 l 0.0887,-0.63406 h 0.45074 l 0.10186,-0.72984 0.70052,-0.26272 z m 2.87145,-0.0813 c 0.15506,0.009 0.30655,0.0625 0.44355,0.15479 0.21004,0.16132 0.36053,0.42151 0.41837,0.72323 0.0685,0.37818 0.0681,0.7711 -0.002,1.14901 -0.0137,0.0871 -0.031,0.17301 -0.0522,0.25759 h -2.02259 c -0.0237,0.19151 -0.0214,0.38671 0.006,0.57725 0.032,0.21559 0.13663,0.40318 0.28649,0.51405 0.15023,0.11274 0.32326,0.16755 0.49783,0.15765 0.28363,0.005 0.56539,-0.0594 0.82957,-0.18988 l 0.0262,0.59805 c -0.28213,0.14175 -0.5814,0.22122 -0.88481,0.23499 -0.24139,0.0247 -0.48426,-0.0117 -0.7143,-0.10734 -0.32758,-0.14208 -0.57588,-0.48435 -0.65939,-0.90888 -0.0637,-0.33265 -0.0689,-0.67885 -0.0156,-1.01438 0.0678,-0.52555 0.24697,-1.01815 0.51845,-1.42556 0.20634,-0.30814 0.47905,-0.53409 0.78501,-0.65043 0.17471,-0.0627 0.35676,-0.0866 0.53793,-0.07 z m -33.97574,1.13647 c 0.0646,0.6871 0.10703,1.37721 0.1272,2.06867 h 0.0175 l 0.0768,-0.25175 c 0.13699,-0.43617 0.28487,-0.86682 0.44333,-1.29121 l 1.18665,-3.14997 H 113.34 l -2.21329,5.58977 h -0.74533 l -0.56,-5.58977 h 0.73376 z m 44.09592,-1.14119 c 0.20817,0.008 0.40639,0.11395 0.55663,0.29616 0.13337,0.18869 0.21388,0.42752 0.22911,0.67973 0.0133,0.22433 0.005,0.44985 -0.0277,0.67119 l -0.34338,2.45962 h -0.66961 l 0.32912,-2.35747 c 0.0397,-0.21817 0.0371,-0.44531 -0.008,-0.66186 -0.0341,-0.18561 -0.15159,-0.32867 -0.29966,-0.36499 -0.18247,-0.0532 -0.37423,-0.0106 -0.53133,0.11809 -0.18542,0.13871 -0.3247,0.35785 -0.39184,0.61645 -0.0208,0.0742 -0.0374,0.15015 -0.0497,0.22725 l -0.33819,2.42253 h -0.66967 l 0.40346,-2.88961 c 0.0519,-0.37562 0.0969,-0.75273 0.13478,-1.13099 h 0.58307 l -0.0487,0.59757 h 0.0175 l 0.0397,-0.0657 c 0.26485,-0.40916 0.6664,-0.63791 1.08455,-0.6178 z m -4.70012,0.63263 h 0.0115 l 0.0521,-0.0757 c 0.25531,-0.36524 0.6254,-0.56911 1.01102,-0.55695 0.20461,0.009 0.39871,0.11641 0.54375,0.29893 0.1321,0.1938 0.21096,0.43634 0.22483,0.69144 0.0125,0.22932 0.005,0.45969 -0.03,0.68588 l -0.33933,2.43045 h -0.6696 l 0.32812,-2.35014 c 0.04,-0.22019 0.037,-0.44948 -0.008,-0.6679 -0.0344,-0.18548 -0.15135,-0.32872 -0.29922,-0.36628 -0.18166,-0.0522 -0.37228,-0.0104 -0.52946,0.11588 -0.20718,0.15249 -0.35693,0.40418 -0.41524,0.69795 l -0.0215,0.11087 -0.3434,2.45962 h -0.66934 l 0.81713,-5.85249 h 0.66964 z m -31.59121,-0.63263 c 0.20816,0.008 0.4064,0.11395 0.5566,0.29616 0.13339,0.18869 0.21388,0.42752 0.22913,0.67973 0.0133,0.22433 0.005,0.44985 -0.0277,0.67119 l -0.3434,2.45962 h -0.66959 l 0.32911,-2.35747 c 0.0397,-0.21817 0.0371,-0.4453 -0.008,-0.66186 -0.0342,-0.18561 -0.15156,-0.32867 -0.29967,-0.36499 -0.18245,-0.0532 -0.37422,-0.0106 -0.53133,0.11809 -0.18541,0.13871 -0.32467,0.35785 -0.39181,0.61645 -0.0208,0.0742 -0.0374,0.15015 -0.0497,0.22725 l -0.33822,2.42253 h -0.66965 l 0.40345,-2.88961 c 0.0519,-0.37566 0.0969,-0.75268 0.13476,-1.13099 h 0.58309 l -0.0487,0.59757 h 0.0174 l 0.0397,-0.0657 c 0.26484,-0.40916 0.6664,-0.63791 1.08455,-0.6178 z m 41.97049,4.10666 h -0.66965 l 0.81712,-5.85248 h 0.66965 z m -28.0334,-4.10629 c 0.0403,0.003 0.0803,0.009 0.1198,0.0205 l -0.113,0.80924 -0.0429,-0.009 c -0.331,-0.0692 -0.6628,0.12006 -0.84041,0.47953 -0.10547,0.20489 -0.17596,0.43524 -0.20713,0.6764 l -0.29746,2.13068 h -0.66963 l 0.41381,-2.9658 c 0.0486,-0.35017 0.0902,-0.70189 0.12439,-1.0548 h 0.58307 l -0.0797,0.73627 h 0.023 l 0.0433,-0.094 c 0.14316,-0.31083 0.36776,-0.54883 0.635,-0.67292 0.0989,-0.0427 0.20329,-0.0616 0.30773,-0.0556 z m -17.66175,2.0872 c -0.17929,0.005 -0.3575,0.0367 -0.53065,0.0956 -0.15986,0.0547 -0.30566,0.16084 -0.42321,0.30819 -0.14831,0.21346 -0.20532,0.50446 -0.15301,0.78066 0.0489,0.17273 0.17703,0.28957 0.32226,0.29392 0.39736,0.0231 0.74833,-0.32362 0.8262,-0.81628 l 0.0928,-0.66415 z m 14.10046,0 c -0.17931,0.005 -0.3575,0.0367 -0.53067,0.0956 -0.15983,0.0547 -0.30565,0.16084 -0.42321,0.30819 -0.14829,0.21346 -0.20531,0.50446 -0.15297,0.78066 0.0488,0.17273 0.17701,0.28956 0.32223,0.29392 0.39737,0.0231 0.74833,-0.32362 0.8262,-0.81628 l 0.0928,-0.66415 z m 29.03373,-1.44923 c -0.20073,0.0246 -0.38637,0.14543 -0.51878,0.33748 -0.12774,0.17529 -0.22687,0.38065 -0.29174,0.60435 -0.11004,0.34226 -0.15809,0.71128 -0.14059,1.08002 0.009,0.19673 0.054,0.38822 0.13098,0.55971 0.0828,0.17758 0.22612,0.29685 0.38798,0.32309 0.18075,0.0273 0.36297,-0.0319 0.51069,-0.16629 0.16533,-0.15677 0.2985,-0.36131 0.38831,-0.59649 0.17991,-0.4462 0.24535,-0.95199 0.18725,-1.44729 -0.0244,-0.22008 -0.11099,-0.42168 -0.24356,-0.56786 -0.11999,-0.10428 -0.26601,-0.14936 -0.41054,-0.12672 z m 5.25874,0 c -0.20068,0.0246 -0.38633,0.14543 -0.51873,0.33748 -0.12774,0.17529 -0.22688,0.38065 -0.29176,0.60435 -0.11006,0.34225 -0.15809,0.71128 -0.14058,1.08002 0.009,0.19673 0.054,0.38822 0.13099,0.55971 0.0828,0.17758 0.22611,0.29685 0.38798,0.32309 0.18072,0.0273 0.36295,-0.0319 0.51067,-0.16629 0.16533,-0.15677 0.29849,-0.36131 0.38832,-0.59649 0.17992,-0.4462 0.24533,-0.95198 0.18727,-1.44729 -0.0245,-0.22009 -0.11099,-0.42168 -0.2436,-0.56786 -0.11997,-0.10428 -0.26599,-0.14935 -0.41056,-0.12672 z m -28.86102,0.041 c -0.22047,0.0401 -0.41976,0.18754 -0.55525,0.41083 -0.15856,0.25454 -0.26917,0.55126 -0.32354,0.86776 -0.0542,0.26806 -0.0673,0.54677 -0.0385,0.82107 0.0179,0.18041 0.0753,0.351 0.16574,0.49237 0.0906,0.12524 0.21459,0.2041 0.34825,0.22166 0.24416,0.0348 0.48704,-0.077 0.65618,-0.30212 0.15604,-0.20056 0.26005,-0.45636 0.2982,-0.73335 l 0.10382,-0.7441 c 0.0267,-0.17661 0.0224,-0.35854 -0.0125,-0.53285 -0.067,-0.30936 -0.29322,-0.52066 -0.54707,-0.51119 z m -12.71674,-0.003 c -0.17584,0.0298 -0.33917,0.13128 -0.4653,0.28887 -0.15121,0.18705 -0.26592,0.41593 -0.33511,0.66856 -0.0956,0.31717 -0.13672,0.65645 -0.1205,0.9952 0.008,0.18294 0.0544,0.36002 0.13314,0.5139 0.0913,0.16343 0.23502,0.26762 0.3928,0.28459 0.19253,0.0294 0.38663,-0.0367 0.5413,-0.18452 0.15755,-0.14219 0.27421,-0.34516 0.33245,-0.57841 0.021,-0.0771 0.0382,-0.15601 0.0505,-0.23604 l 0.11017,-0.78878 c 0.0279,-0.18032 0.0165,-0.36686 -0.0334,-0.53949 -0.0696,-0.23888 -0.2431,-0.40483 -0.44403,-0.42472 -0.0539,-0.009 -0.10844,-0.009 -0.16219,6.1e-4 z m 45.13302,0 c -0.17581,0.0298 -0.33917,0.13128 -0.46531,0.28887 -0.15119,0.18706 -0.26591,0.41593 -0.3351,0.66856 -0.0956,0.31717 -0.13672,0.65645 -0.12047,0.9952 0.008,0.18294 0.0543,0.36002 0.13313,0.5139 0.0913,0.16344 0.23501,0.26764 0.39277,0.28459 0.19256,0.0294 0.38663,-0.0367 0.54131,-0.18452 0.15756,-0.14219 0.27423,-0.34516 0.33246,-0.57841 0.021,-0.0771 0.0379,-0.15601 0.0505,-0.23604 l 0.11014,-0.78878 c 0.0279,-0.18032 0.0165,-0.36686 -0.0334,-0.53949 -0.0696,-0.23884 -0.24308,-0.40481 -0.44396,-0.42472 -0.0539,-0.009 -0.10847,-0.009 -0.16227,6.1e-4 z m -22.35155,-0.069 c -0.17,0.0179 -0.32971,0.11049 -0.45124,0.26165 -0.18073,0.22402 -0.30981,0.50566 -0.37361,0.81517 h 1.39924 c 0.0342,-0.20233 0.0321,-0.41166 -0.005,-0.61296 -0.0354,-0.19111 -0.14251,-0.34835 -0.28675,-0.4216 -0.0906,-0.0389 -0.18681,-0.0533 -0.2822,-0.0422 z"
         id="path3" /><path
         style="fill:#800000;stroke:#000000;stroke-width:0.0160313mm"
         d="m 97.781632,88.233115 c 0.598887,0.0087 1.194207,0.09579 1.7714,0.259148 0.478718,0.134063 0.928608,0.358665 1.326238,0.662117 0.71975,0.563538 1.19944,1.388666 1.33933,2.3038 0.0346,0.20981 0.0552,0.421728 0.0621,0.634351 l -2.522037,0.113118 -0.02169,-0.120715 c -0.05804,-0.346568 -0.186018,-0.677013 -0.376084,-0.970158 -0.209693,-0.301562 -0.515213,-0.519805 -0.864485,-0.617574 -0.422063,-0.117916 -0.860655,-0.161574 -1.297058,-0.129099 -0.383146,0.01248 -0.76064,0.09806 -1.112983,0.25227 -0.193486,0.08524 -0.36876,0.208253 -0.516049,0.362144 -0.296441,0.354853 -0.302471,0.87482 -0.01441,1.236736 0.133113,0.160852 0.299788,0.289272 0.487763,0.375834 0.435116,0.202337 0.88755,0.363306 1.351572,0.48087 0.361426,0.09672 0.723733,0.188903 1.087365,0.276643 l 0.211308,0.05594 c 0.626356,0.158218 1.238673,0.36977 1.830428,0.632439 0.51847,0.232288 0.97777,0.583067 1.3425,1.0253 0.36609,0.449895 0.60825,0.991328 0.70154,1.568503 0.081,0.459571 0.0921,0.929152 0.033,1.392179 -0.11903,0.821231 -0.49671,1.580396 -1.07594,2.162839 -0.45307,0.43532 -1.00072,0.75476 -1.598059,0.93217 -0.615049,0.18409 -1.25105,0.28497 -1.891783,0.30004 -0.6769,0.0328 -1.355189,-0.0175 -2.02034,-0.14999 -0.529085,-0.10546 -1.036857,-0.30189 -1.501607,-0.58087 -0.668269,-0.41721 -1.200289,-1.027551 -1.528641,-1.753753 -0.267038,-0.596163 -0.43684,-1.232897 -0.502702,-1.885013 l 2.453876,-0.243661 0.02947,0.155141 c 0.08103,0.449719 0.247798,0.878835 0.490533,1.26308 0.305409,0.456369 0.76496,0.781712 1.290551,0.913648 0.691549,0.169687 1.414191,0.151337 2.09664,-0.05324 0.505992,-0.156897 0.924646,-0.522481 1.154971,-1.008592 0.151721,-0.34761 0.157771,-0.743247 0.01671,-1.095544 -0.08856,-0.197306 -0.229933,-0.365022 -0.407837,-0.483724 -0.294241,-0.188084 -0.61458,-0.329476 -0.95033,-0.419509 -0.655534,-0.188103 -1.314083,-0.364242 -1.97574,-0.528482 l -0.239341,-0.06696 c -0.542269,-0.148774 -1.069385,-0.350175 -1.574116,-0.60144 -0.722461,-0.356776 -1.303409,-0.955413 -1.646295,-1.69641 -0.610701,-1.381619 -0.23579,-3.01012 0.913773,-3.969051 0.348107,-0.281616 0.74031,-0.50103 1.160098,-0.648988 0.485966,-0.169417 0.991218,-0.27427 1.503379,-0.311989 0.327025,-0.02577 0.655177,-0.03366 0.983048,-0.02368 z m 17.972058,-2.34e-4 c 0.68012,0.0091 1.35579,0.113875 2.0079,0.311357 0.93521,0.281768 1.74843,0.881033 2.30508,1.698641 0.34796,0.525355 0.59154,1.115337 0.71694,1.736527 l -2.505,0.478592 -0.0733,-0.228776 c -0.33021,-0.930261 -1.13368,-1.600628 -2.09215,-1.74555 -0.71622,-0.118636 -1.45021,-0.04473 -2.12996,0.214458 -0.85023,0.347175 -1.51127,1.054023 -1.81182,1.937382 -0.16901,0.493441 -0.26778,1.009065 -0.2934,1.531154 -0.0439,0.68723 -0.002,1.377336 0.12377,2.053898 0.0905,0.492599 0.26433,0.96543 0.51347,1.39725 0.54441,0.915545 1.48917,1.505671 2.53522,1.583597 0.67387,0.06085 1.35234,-0.04198 1.9799,-0.299894 0.48969,-0.188253 0.95028,-0.447625 1.36754,-0.770068 v -1.618514 h -2.88841 v -2.149279 h 5.43602 v 5.081745 c -0.42394,0.400755 -0.9046,0.733959 -1.42578,0.988419 -0.86991,0.44678 -1.80292,0.75148 -2.76526,0.90307 -0.99415,0.14719 -2.00641,0.1044 -2.98525,-0.12617 -0.95692,-0.22366 -1.84249,-0.69203 -2.57355,-1.361099 -0.55231,-0.523383 -0.99094,-1.159262 -1.28758,-1.866569 -0.46509,-1.085787 -0.68416,-2.264816 -0.6409,-3.449082 0.0141,-0.925387 0.19623,-1.84008 0.53677,-2.697742 0.34295,-0.872765 0.89138,-1.645756 1.59666,-2.250402 0.60098,-0.515557 1.30318,-0.893599 2.05931,-1.108669 0.65523,-0.173369 1.33013,-0.256822 2.00693,-0.248155 z m 25.9902,0.0027 c 0.63307,0.02023 1.26032,0.130614 1.86355,0.327889 1.52639,0.508069 2.75257,1.682881 3.34638,3.206154 0.2424,0.62577 0.39924,1.28267 0.46603,1.952168 0.10574,0.973071 0.0714,1.956667 -0.10237,2.919534 -0.1165,0.632075 -0.32431,1.242974 -0.61665,1.812636 -0.69976,1.343646 -1.91542,2.329488 -3.35542,2.721098 -0.62252,0.16853 -1.26435,0.25103 -1.90835,0.2453 -0.65074,0.006 -1.29938,-0.0762 -1.92901,-0.24411 -1.6463,-0.43899 -2.99147,-1.649039 -3.62568,-3.261458 -0.24012,-0.613735 -0.3958,-1.258497 -0.46251,-1.915862 -0.10976,-1.03074 -0.0684,-2.072369 0.12277,-3.090656 0.28175,-1.492478 1.11428,-2.817322 2.32545,-3.700641 0.3517,-0.249746 0.73522,-0.449104 1.13989,-0.592508 0.53453,-0.189887 1.09063,-0.309144 1.65482,-0.354866 0.3595,-0.0309 0.72053,-0.03911 1.08101,-0.02469 z m 10.24531,7.119753 c -0.009,0.636806 0.0105,1.273746 0.0618,1.908488 0.0818,0.920221 0.74386,1.67748 1.6299,1.864307 0.62132,0.139175 1.26624,0.12166 1.87944,-0.05119 0.69692,-0.216277 1.19547,-0.842774 1.26033,-1.583701 0.0668,-0.661047 0.0952,-1.325606 0.0849,-1.990128 V 88.4461 h 2.52204 v 6.700246 c 0.009,0.841521 -0.023,1.683 -0.0966,2.52119 -0.0373,0.477508 -0.14172,0.94709 -0.30976,1.394312 -0.27135,0.688562 -0.75788,1.266372 -1.38388,1.643402 -0.56494,0.34669 -1.19636,0.56525 -1.85125,0.64086 -0.9744,0.11743 -1.95984,0.0974 -2.92886,-0.0594 -0.87445,-0.14189 -1.68008,-0.5701 -2.29549,-1.2202 -0.36455,-0.398526 -0.63751,-0.875 -0.79905,-1.394796 -0.11178,-0.440122 -0.18461,-0.889654 -0.2173,-1.34314 -0.0561,-0.691088 -0.0822,-1.384346 -0.0781,-2.077799 v -6.804679 h 2.52204 z m -111.834403,2.532453 3.058836,-9.441254 h 2.675415 L 41.415823,101.20313 H 38.723366 L 34.258664,88.446542 h 2.735057 z M 56.259804,90.604545 H 52.561937 V 101.20313 H 50.039891 V 90.604549 h -3.706387 v -2.158007 h 9.9263 z m 4.202972,8.449268 h 6.271033 v 2.149317 H 57.940732 V 88.550962 h 2.522044 z m 19.318135,2.149317 h -2.74358 l -1.090614,-2.897655 h -4.992969 l -1.030974,2.897655 h -2.675413 l 4.865163,-12.756591 h 2.666894 z m 5.960275,-12.756111 c 0.64659,-0.0072 1.292899,0.02976 1.934678,0.11043 0.677131,0.0892 1.308588,0.397316 1.801994,0.879257 0.400982,0.392765 0.691613,0.888041 0.841744,1.43435 0.1736,0.682384 0.11357,1.404798 -0.170106,2.047565 -0.299735,0.670776 -0.829484,1.206466 -1.489208,1.505933 l 0.140587,0.0444 c 0.512886,0.159631 0.981161,0.441794 1.365965,0.823098 0.53723,0.553328 0.845154,1.296876 0.85972,2.075977 0.03442,1.082669 -0.3841,2.128684 -1.1511,2.876911 -0.371976,0.34763 -0.820158,0.59907 -1.306966,0.73323 -0.4174,0.11008 -0.84609,0.16931 -1.277129,0.17647 -0.824119,0.0307 -1.649162,0.047 -2.473803,0.0486 H 80.565873 V 88.446542 c 1.740713,-0.0041 3.434308,-0.0041 5.175313,4.72e-4 z m 43.131034,6.74e-4 c 0.66643,-0.0027 1.33194,0.05099 1.98957,0.161135 0.38785,0.06118 0.7621,0.19208 1.1052,0.386593 0.49054,0.294085 0.88916,0.724437 1.14948,1.240931 0.24152,0.466362 0.38109,0.980711 0.40899,1.507521 0.0396,0.538058 -0.0277,1.07879 -0.19816,1.589551 -0.28271,0.812761 -0.8794,1.471723 -1.65077,1.822975 -0.4575,0.209899 -0.94265,0.350256 -1.43996,0.416566 l 0.20001,0.123333 c 0.48404,0.297453 0.9192,0.67102 1.28936,1.10686 0.3912,0.493585 0.75088,1.012395 1.07675,1.553235 0.58649,0.947043 1.16717,1.894177 1.7452,2.846537 h -3.01621 l -1.94243,-2.957538 c -0.33138,-0.517496 -0.68311,-1.021111 -1.05437,-1.509549 -0.21429,-0.288823 -0.49375,-0.520407 -0.81463,-0.675021 -0.19751,-0.07991 -0.40543,-0.129485 -0.61711,-0.147393 -0.2498,-0.02573 -0.50082,-0.03793 -0.7519,-0.03597 h -0.51121 v 5.325391 h -2.52208 V 88.446374 h 5.30825 z m 37.50436,-5.53e-4 c 0.70925,-0.0048 1.41832,0.02548 2.12477,0.0897 0.95154,0.07187 1.82512,0.564988 2.3909,1.349626 0.34201,0.466395 0.56646,1.011539 0.65353,1.587415 0.12054,0.738283 0.0892,1.493979 -0.0923,2.219161 -0.19931,0.703091 -0.60306,1.327539 -1.15793,1.790847 -0.42968,0.349543 -0.9302,0.596978 -1.46522,0.724275 -0.59796,0.105921 -1.20322,0.163235 -1.81004,0.171358 -0.26859,0.0084 -0.53703,0.01164 -0.8057,0.01136 h -1.64449 v 4.811988 h -2.52202 V 88.446348 c 1.45245,-0.0041 2.87664,-0.0034 4.32853,6.74e-4 z m -25.14051,1.987449 c -0.59004,0.01512 -1.16526,0.191932 -1.66546,0.511895 -0.56184,0.371143 -0.99478,0.913936 -1.23698,1.550946 -0.18488,0.491276 -0.29915,1.007261 -0.3393,1.531955 -0.0723,0.7559 -0.0372,1.518534 0.10419,2.264166 0.0914,0.47717 0.26375,0.934421 0.50906,1.351112 0.40386,0.672035 1.02955,1.174579 1.76421,1.417047 0.79918,0.248122 1.6576,0.205683 2.42963,-0.120102 0.77523,-0.357556 1.38243,-1.010902 1.69163,-1.820225 0.18719,-0.496045 0.30297,-1.017156 0.34373,-1.54715 0.0715,-0.761319 0.0384,-1.529133 -0.0983,-2.281077 -0.0855,-0.47229 -0.25114,-0.925776 -0.48913,-1.340053 -0.48994,-0.822074 -1.32215,-1.369392 -2.25769,-1.484811 -0.25038,-0.03419 -0.50325,-0.04546 -0.7556,-0.03374 z M 83.087921,95.64259 v 3.411034 c 0.886258,0.0028 1.773621,0.0028 2.659853,-0.0019 0.433112,0.0047 0.866161,-0.01503 1.297192,-0.05878 0.34757,-0.03832 0.674059,-0.189305 0.931435,-0.43088 0.234431,-0.226917 0.384077,-0.530174 0.423166,-0.857602 0.05114,-0.326162 0.02209,-0.66024 -0.0843,-0.972136 -0.145301,-0.392932 -0.446562,-0.704856 -0.829293,-0.858607 -0.218151,-0.08724 -0.447627,-0.14127 -0.681165,-0.160427 -0.558492,-0.05485 -1.119443,-0.0786 -1.680459,-0.07146 z m -11.358815,0.513391 h 3.408171 l -1.721125,-4.733678 z m 92.840974,-1.931764 c 0.57913,0.0053 1.15857,0.0044 1.73766,-0.0026 0.44331,6.7e-4 0.88593,-0.03594 1.32336,-0.109489 0.62174,-0.104105 1.13169,-0.559765 1.31531,-1.175264 0.12089,-0.432205 0.0906,-0.893737 -0.0851,-1.305796 -0.22076,-0.453769 -0.62607,-0.78506 -1.10795,-0.905604 -0.31134,-0.06677 -0.62843,-0.101613 -0.94654,-0.103939 -0.28374,-0.01039 -0.56762,-0.01585 -0.85151,-0.01633 l -1.38531,-4e-4 z m -38.73005,-0.382869 c 0.76671,0.0053 1.53165,0.0044 2.29834,-0.0026 0.50892,0.0026 1.01753,-0.02598 1.52308,-0.08571 0.66937,-0.06255 1.1993,-0.606093 1.25777,-1.289966 0.0376,-0.287398 0.0144,-0.57966 -0.0682,-0.857112 -0.12461,-0.384789 -0.41117,-0.692533 -0.78121,-0.838992 -0.23314,-0.09458 -0.48186,-0.142864 -0.7327,-0.142236 -0.44716,-0.01565 -0.89453,-0.02246 -1.34197,-0.02043 l -2.1551,-1.6e-4 z M 83.087921,93.519402 c 0.910002,0.0079 1.81914,0.0044 2.729093,-0.0088 0.252314,3.52e-4 0.504521,-0.01136 0.75577,-0.03533 0.29037,-0.0274 0.570092,-0.125513 0.815552,-0.28628 0.336088,-0.22774 0.546661,-0.604819 0.567468,-1.016194 0.0262,-0.273814 -0.01463,-0.549985 -0.119063,-0.803634 C 87.699417,91.057102 87.43958,90.81854 87.121175,90.71219 86.862155,90.62885 86.59197,90.587441 86.320409,90.5895 85.798323,90.57391 85.275764,90.5671 84.753426,90.56907 l -1.665512,-1.62e-4 z"
         id="path2" /><g
         id="g191"
         transform="matrix(0.93910713,0,0,0.93910713,160.40908,-7.3357372)"
         style="fill:none;stroke:#800000;stroke-opacity:1"><path
           id="path191"
           style="fill:none;stroke:#800000;stroke-width:3.27351;stroke-linecap:round;stroke-linejoin:round;stroke-opacity:1"
           d="m -70.127531,37.153042 v 9.547218 h -4.991517 c -3.041974,0 -5.490613,2.449189 -5.490613,5.491164 v 5.039941 l -9.56978,0.02366 0.0022,0.819355 9.567579,-0.02366 v 7.693903 l -9.54887,0.02421 0.0022,0.819355 9.546668,-0.02366 v 7.693902 l -9.527409,0.02366 0.0022,0.819905 9.525208,-0.02366 v 4.943093 c 0,3.041976 2.448639,5.491163 5.490613,5.491163 h 4.991517 v 9.547219 h 0.819355 v -9.547219 h 7.694453 v 9.547219 h 0.819355 v -9.547219 h 7.694453 v 9.547219 h 0.819355 v -9.547219 h 4.991517 c 3.041975,0 5.491164,-2.449187 5.491164,-5.491163 v -5.039391 l 9.569229,-0.02366 -0.0022,-0.819905 -9.567028,0.02366 V 66.46823 l 9.548319,-0.02366 -0.0022,-0.819905 -9.546118,0.02421 v -7.694453 l 9.526858,-0.02366 -0.0022,-0.819355 -9.524657,0.02366 v -4.943643 c 0,-3.041975 -2.449189,-5.491164 -5.491164,-5.491164 h -4.991517 v -9.547218 h -0.819355 v 9.547218 h -7.694453 v -9.547218 h -0.819355 v 9.547218 h -7.694453 v -9.547218 z" /></g><g
         id="path1"><path
           style="color:#000000;fill:#000000;stroke-linecap:round;stroke-linejoin:round;-inkscape-stroke:none;paint-order:stroke fill markers"
           d="m 89.570312,41.046875 a 0.05241374,0.05241374 0 0 0 -0.04883,0.07227 L 99.890623,68.41016 a 0.05241374,0.05241374 0 0 0 0.04883,0.0332 h 6.130857 a 0.05241374,0.05241374 0 0 0 0.0488,-0.0332 L 116.3418,41.119141 a 0.05241374,0.05241374 0 0 0 -0.0488,-0.07227 h -7.00195 a 0.05241374,0.05241374 0 0 0 -0.0488,0.03516 l -4.89453,13.927735 a 0.05241374,0.05241374 0 0 0 0,0.002 l -0.375,1.15625 a 0.05241374,0.05241374 0 0 0 0,0.002 l -0.35157,1.15625 c -0.1999,0.729905 -0.42167,1.452997 -0.65429,2.171875 l -1.35352,-4.484375 a 0.05241374,0.05241374 0 0 0 0,-0.002 L 96.767578,41.082031 a 0.05241374,0.05241374 0 0 0 -0.05078,-0.03516 z m 0.07617,0.105469 h 7.033203 l 4.833985,13.892578 1.4043,4.65039 a 0.05241374,0.05241374 0 0 0 0.0996,0 c 0.25335,-0.773824 0.48768,-1.553204 0.70312,-2.339843 l 0.35157,-1.15625 0.375,-1.154297 4.88086,-13.892578 h 6.89062 L 106.0332,68.337891 h -6.056638 z"
           id="path19" /><path
           style="color:#000000;fill:#ef8800;stroke-linecap:round;stroke-linejoin:round;-inkscape-stroke:none;paint-order:stroke fill markers"
           d="m 101.56313,55.028079 1.40517,4.651313 c 0.25309,-0.77301 0.48735,-1.552691 0.70257,-2.338505 l 0.35137,-1.156404 0.37544,-1.156404 4.89385,-13.928225 h 7.00158 l -10.22376,27.2911 h -6.129425 l -10.369128,-27.2911 h 7.14692 z"
           id="path20" /></g></g></g></svg>
